<svg xmlns="http://www.w3.org/2000/svg" width="19.203" height="33.698" viewBox="0 0 19.203 33.698"><defs><style>.a{fill:#5064cc;}</style></defs><path class="a" d="M456.734,279H442.467A2.46,2.46,0,0,0,440,281.456v28.79a2.46,2.46,0,0,0,2.467,2.453h14.268a2.463,2.463,0,0,0,2.469-2.453v-28.79A2.464,2.464,0,0,0,456.734,279Zm.619,27.3h-15.5V283.142h15.5Zm-4.444-24.811h-6.615v-.717h6.616Zm2.831-.328a.632.632,0,1,1-.632-.627A.631.631,0,0,1,455.739,281.164Zm-3.127,28.918h-6.024V308.24h6.024Z" transform="translate(-440 -279)"/></svg>