<svg xmlns="http://www.w3.org/2000/svg" width="22.608" height="15.222" viewBox="0 0 22.608 15.222"><defs><style>.a,.b,.d{fill:#5064cc;}.c,.d{stroke:none;}</style></defs><g transform="translate(0)"><g transform="translate(9.402 11.435)"><path class="a" d="M194.382,309.325v-.088c-.45,0-.881-.029-1.3-.064a5.908,5.908,0,0,1-.939,1.61,15.288,15.288,0,0,0,2.266.2Z" transform="translate(-192.146 -309.173)"/></g><g transform="translate(0 4.458)"><g transform="translate(0 0)"><path class="a" d="M9.656,170.463a4.913,4.913,0,0,0-3.337-3.675,4.984,4.984,0,0,0-1.443-.215,4.876,4.876,0,1,0,3.283,8.48,4.848,4.848,0,0,0,1.6-3.606A5.118,5.118,0,0,0,9.656,170.463Zm-4.781.328a1.847,1.847,0,0,1,.5,3.626v.431a.489.489,0,0,1-.979,0v-.426a1.859,1.859,0,0,1-1.37-1.786.489.489,0,0,1,.979,0,.869.869,0,1,0,.866-.871,1.846,1.846,0,0,1-.47-3.631v-.21a.489.489,0,1,1,.979,0v.22a1.85,1.85,0,0,1,1.346,1.781.489.489,0,0,1-.979,0,.871.871,0,1,0-.871.866Z" transform="translate(0 -166.573)"/></g></g><g transform="translate(10.62 8.749)"><g transform="translate(0 0)"><path class="a" d="M218.049,256.039l-.029-1.732c-.3,0-.6-.015-.886-.034.015.2.024.387.024.577a6.017,6.017,0,0,1-.113,1.145C217.369,256.025,217.707,256.039,218.049,256.039Z" transform="translate(-217.046 -254.273)"/></g></g><g transform="translate(6.931 2.417)"><g transform="translate(0 0)"><path class="a" d="M151.7,124.873a5.866,5.866,0,0,1-1.062.426,16.166,16.166,0,0,1-7.932.039,5.423,5.423,0,0,1-1.057-.406l.034,1.38a5.646,5.646,0,0,1,1.532.866c.015,0,.024,0,.039.01a14,14,0,0,0,3.332.367,13.851,13.851,0,0,0,3.768-.475c1.062-.323,1.3-.661,1.3-.724a.281.281,0,0,1,.049-.2Z" transform="translate(-141.646 -124.873)"/></g></g><g transform="translate(6.882)"><path class="a" d="M149.395,75.948a13.66,13.66,0,0,0-3.768-.475,13.216,13.216,0,0,0-3.719.475c-1.032.313-1.258.621-1.262.719,0,0,0,0,0,.01.024.108.318.44,1.37.744a13.435,13.435,0,0,0,3.606.44,13.825,13.825,0,0,0,3.763-.47c1.062-.318,1.3-.656,1.3-.724S150.457,76.271,149.395,75.948Z" transform="translate(-140.646 -75.473)"/></g><g transform="translate(12.636 12.546)"><path class="a" d="M268.208,333.341v-1.468a6.266,6.266,0,0,1-1.028.416,14.467,14.467,0,0,1-4.042.514,15.054,15.054,0,0,1-3.675-.421,6.375,6.375,0,0,1-1.218-.445l.025,1.419v.01c0,.073.215.4,1.248.719a13.314,13.314,0,0,0,3.714.465,13.063,13.063,0,0,0,3.724-.479c1.033-.323,1.258-.66,1.258-.729Z" transform="translate(-258.246 -331.873)"/></g><g transform="translate(9.642 5.148)"><g transform="translate(0 0)"><path class="a" d="M204.376,180.673a6.182,6.182,0,0,1-1.057.421,14.6,14.6,0,0,1-4.056.514,17.62,17.62,0,0,1-2.217-.142,5.8,5.8,0,0,1,.876,1.82c.421.029.876.049,1.346.049h.049c.8-.881,2.96-1.321,5.059-1.38v-1.282Z" transform="translate(-197.046 -180.673)"/></g></g><g transform="translate(12.592 9.84)"><g transform="translate(0 0)"><path class="a" d="M266.29,276.989a14.648,14.648,0,0,1-4,.5,14.465,14.465,0,0,1-3.88-.475,6.02,6.02,0,0,1-1.067-.411l.02,1.125,0,.411c.382.475,2.207,1.086,4.918,1.086a13.538,13.538,0,0,0,3.753-.47c1.057-.323,1.287-.656,1.287-.724s.029-.113.029-.161h0v-1.3A5.589,5.589,0,0,1,266.29,276.989Z" transform="translate(-257.346 -276.573)"/></g></g><g transform="translate(12.558 7.418)"><path class="a" d="M265.395,227.538a13.713,13.713,0,0,0-3.768-.465h-.083a13.315,13.315,0,0,0-3.489.416c-1.013.284-1.36.607-1.4.739a.037.037,0,0,0,0,.02l.01.02c.029.1.318.435,1.37.744a15.207,15.207,0,0,0,7.325-.024c1.086-.323,1.331-.661,1.336-.734v0C266.682,228.174,266.437,227.851,265.395,227.538Z" transform="translate(-256.646 -227.073)"/></g></g><g class="b" transform="translate(1.922 5.431)"><path class="c" d="M 2.882259845733643 7.518991470336914 C 1.568679809570313 7.518991470336914 0.4999998509883881 6.019321441650391 0.4999998509883881 4.175981521606445 C 0.4999998509883881 2.176191568374634 1.70225989818573 0.1386716663837433 2.882259845733643 0.1386716663837433 C 4.062259674072266 0.1386716663837433 5.264519691467285 2.176191568374634 5.264519691467285 4.175981521606445 C 5.264519691467285 6.019321441650391 4.195839881896973 7.518991470336914 2.882259845733643 7.518991470336914 Z"/><path class="d" d="M 2.882259845733643 0.638671875 C 2.077789783477783 0.638671875 1 2.387531757354736 1 4.175981521606445 C 1 5.71705150604248 1.861969947814941 7.018991470336914 2.882259845733643 7.018991470336914 C 3.902549743652344 7.018991470336914 4.764519691467285 5.71705150604248 4.764519691467285 4.175981521606445 C 4.764519691467285 2.387531757354736 3.686729907989502 0.638671875 2.882259845733643 0.638671875 M 2.882259845733643 -0.361328125 C 4.474089622497559 -0.361328125 5.764519691467285 2.053541660308838 5.764519691467285 4.175981521606445 C 5.764519691467285 6.298411846160889 4.474089622497559 8.018991470336914 2.882259845733643 8.018991470336914 C 1.290430068969727 8.018991470336914 0 6.298411846160889 0 4.175981521606445 C 0 2.053541660308838 1.290430068969727 -0.361328125 2.882259845733643 -0.361328125 Z"/></g></svg>