<svg xmlns="http://www.w3.org/2000/svg" width="30.236" height="32.127" viewBox="0 0 30.236 32.127"><defs><style>.a{fill:none;stroke:#4e56c6;}.b{fill:#4e56c6;}</style></defs><g transform="translate(8.325 7.038)"><g transform="translate(-9 -3.828)"><g transform="translate(-1 -9)"><path class="a" d="M-18612,3716.58s1.059-5.05,6.072-4.917" transform="translate(18624.57 -3699.549)"/><path class="a" d="M-18567.2,3711.66l2.09,1.371-2.09,1.929" transform="translate(18584.311 -3700.87)"/></g><g transform="translate(11.57 19.789)"><path class="a" d="M-18612,3711.66s1.059,5.05,6.072,4.917" transform="translate(18612 -3711.66)"/><path class="a" d="M-18567.2,3714.96l2.09-1.371-2.09-1.929" transform="translate(18571.74 -3708.719)"/></g><g transform="translate(0.675 8.069)"><path class="b" d="M89.783,5.5A2.663,2.663,0,0,0,91.729,4.7a2.663,2.663,0,0,0,.806-1.946A2.663,2.663,0,0,0,91.729.806a2.751,2.751,0,0,0-3.891,0,2.663,2.663,0,0,0-.806,1.946A2.663,2.663,0,0,0,87.838,4.7,2.663,2.663,0,0,0,89.783,5.5Zm0,0" transform="translate(-85.089)"/><path class="b" d="M9.509,250.583a6.8,6.8,0,0,0-.093-.722,5.686,5.686,0,0,0-.178-.726,3.585,3.585,0,0,0-.3-.677,2.555,2.555,0,0,0-.45-.586,1.984,1.984,0,0,0-.646-.406,2.234,2.234,0,0,0-.825-.149.838.838,0,0,0-.447.19c-.134.087-.291.189-.466.3a2.67,2.67,0,0,1-.6.266,2.341,2.341,0,0,1-1.475,0,2.667,2.667,0,0,1-.6-.266l-.466-.3a.837.837,0,0,0-.447-.19,2.231,2.231,0,0,0-.825.15,1.982,1.982,0,0,0-.646.406,2.555,2.555,0,0,0-.45.586,3.593,3.593,0,0,0-.3.677,5.7,5.7,0,0,0-.177.726,6.772,6.772,0,0,0-.093.722c-.015.219-.023.446-.023.675a1.9,1.9,0,0,0,.563,1.435,2.028,2.028,0,0,0,1.452.53h5.5a2.028,2.028,0,0,0,1.452-.53,1.9,1.9,0,0,0,.564-1.435C9.532,251.028,9.524,250.8,9.509,250.583Zm0,0" transform="translate(0 -241.797)"/></g><g transform="translate(21.379 -3.211)"><path class="b" d="M89.783,5.5A2.663,2.663,0,0,0,91.729,4.7a2.663,2.663,0,0,0,.806-1.946A2.663,2.663,0,0,0,91.729.806a2.751,2.751,0,0,0-3.891,0,2.663,2.663,0,0,0-.806,1.946A2.663,2.663,0,0,0,87.838,4.7,2.663,2.663,0,0,0,89.783,5.5Zm0,0" transform="translate(-85.089)"/><path class="b" d="M9.509,250.583a6.8,6.8,0,0,0-.093-.722,5.686,5.686,0,0,0-.178-.726,3.585,3.585,0,0,0-.3-.677,2.555,2.555,0,0,0-.45-.586,1.984,1.984,0,0,0-.646-.406,2.234,2.234,0,0,0-.825-.149.838.838,0,0,0-.447.19c-.134.087-.291.189-.466.3a2.67,2.67,0,0,1-.6.266,2.341,2.341,0,0,1-1.475,0,2.667,2.667,0,0,1-.6-.266l-.466-.3a.837.837,0,0,0-.447-.19,2.231,2.231,0,0,0-.825.15,1.982,1.982,0,0,0-.646.406,2.555,2.555,0,0,0-.45.586,3.593,3.593,0,0,0-.3.677,5.7,5.7,0,0,0-.177.726,6.772,6.772,0,0,0-.093.722c-.015.219-.023.446-.023.675a1.9,1.9,0,0,0,.563,1.435,2.028,2.028,0,0,0,1.452.53h5.5a2.028,2.028,0,0,0,1.452-.53,1.9,1.9,0,0,0,.564-1.435C9.532,251.028,9.524,250.8,9.509,250.583Zm0,0" transform="translate(0 -241.797)"/></g><g transform="translate(21.379 17.49)"><path class="b" d="M89.783,5.5A2.663,2.663,0,0,0,91.729,4.7a2.663,2.663,0,0,0,.806-1.946A2.663,2.663,0,0,0,91.729.806a2.751,2.751,0,0,0-3.891,0,2.663,2.663,0,0,0-.806,1.946A2.663,2.663,0,0,0,87.838,4.7,2.663,2.663,0,0,0,89.783,5.5Zm0,0" transform="translate(-85.089)"/><path class="b" d="M9.509,250.583a6.8,6.8,0,0,0-.093-.722,5.686,5.686,0,0,0-.178-.726,3.585,3.585,0,0,0-.3-.677,2.555,2.555,0,0,0-.45-.586,1.984,1.984,0,0,0-.646-.406,2.234,2.234,0,0,0-.825-.149.838.838,0,0,0-.447.19c-.134.087-.291.189-.466.3a2.67,2.67,0,0,1-.6.266,2.341,2.341,0,0,1-1.475,0,2.667,2.667,0,0,1-.6-.266l-.466-.3a.837.837,0,0,0-.447-.19,2.231,2.231,0,0,0-.825.15,1.982,1.982,0,0,0-.646.406,2.555,2.555,0,0,0-.45.586,3.593,3.593,0,0,0-.3.677,5.7,5.7,0,0,0-.177.726,6.772,6.772,0,0,0-.093.722c-.015.219-.023.446-.023.675a1.9,1.9,0,0,0,.563,1.435,2.028,2.028,0,0,0,1.452.53h5.5a2.028,2.028,0,0,0,1.452-.53,1.9,1.9,0,0,0,.564-1.435C9.532,251.028,9.524,250.8,9.509,250.583Zm0,0" transform="translate(0 -241.797)"/></g></g></g></svg>