<svg xmlns="http://www.w3.org/2000/svg" width="24.98" height="24.75" viewBox="0 0 24.98 24.75">
  <defs>
    <style>.a,.c{fill:#707070;}.b{fill:#fff;stroke-width:2px;}.b,.c{stroke:#fff;stroke-linecap:round;stroke-linejoin:round;}.c{stroke-width:1.5px;}</style>
  </defs>
  <g transform="translate(-49 -656)">
    <g transform="translate(48 655)">
      <path class="a" d="M19.4,15a1.65,1.65,0,0,0,.33,1.82l.06.06a2,2,0,1,1-2.83,2.83l-.06-.06a1.663,1.663,0,0,0-2.82,1.18V21a2,2,0,0,1-4,0v-.09A1.65,1.65,0,0,0,9,19.4a1.65,1.65,0,0,0-1.82.33l-.06.06a2,2,0,1,1-2.83-2.83l.06-.06a1.663,1.663,0,0,0-1.18-2.82H3a2,2,0,1,1,0-4h.09A1.65,1.65,0,0,0,4.6,9a1.65,1.65,0,0,0-.33-1.82l-.06-.06A2,2,0,1,1,7.04,4.29l.06.06a1.65,1.65,0,0,0,1.82.33H9a1.65,1.65,0,0,0,1-1.51V3a2,2,0,0,1,4,0v.09a1.663,1.663,0,0,0,2.82,1.18l.06-.06a2,2,0,1,1,2.83,2.83l-.06.06a1.65,1.65,0,0,0-.33,1.82V9a1.65,1.65,0,0,0,1.51,1H21a2,2,0,0,1,0,4h-.09A1.65,1.65,0,0,0,19.4,15Z" />
      <circle class="b" cx="3" cy="3" r="3" transform="translate(9 9)" />
    </g>
    <path class="c" d="M14.138,2.842a2.289,2.289,0,0,1,3.237,3.237L6.451,17,2,18.217l1.214-4.451Z" transform="translate(55 661.783)" />
  </g>
</svg>
