<svg xmlns="http://www.w3.org/2000/svg" width="34.31" height="22.954" viewBox="0 0 34.31 22.954">
  <g id="Group_15678" data-name="Group 15678" transform="translate(-429 -48)">
    <g id="user-2" transform="translate(448 51.603)">
      <path id="Path_17172" data-name="Path 17172" d="M91.451,8.84a4.277,4.277,0,0,0,3.125-1.295A4.277,4.277,0,0,0,95.871,4.42a4.277,4.277,0,0,0-1.295-3.125,4.419,4.419,0,0,0-6.25,0A4.277,4.277,0,0,0,87.031,4.42a4.277,4.277,0,0,0,1.3,3.125A4.278,4.278,0,0,0,91.451,8.84Zm0,0" transform="translate(-83.912)" fill="#5064cc"/>
      <path id="Path_17173" data-name="Path 17173" d="M15.273,252.563a10.914,10.914,0,0,0-.149-1.16,9.134,9.134,0,0,0-.285-1.166,5.757,5.757,0,0,0-.479-1.087,4.1,4.1,0,0,0-.723-.942,3.186,3.186,0,0,0-1.038-.652,3.587,3.587,0,0,0-1.325-.24,1.345,1.345,0,0,0-.718.3c-.215.14-.467.3-.748.482a4.289,4.289,0,0,1-.968.427,3.76,3.76,0,0,1-2.369,0A4.282,4.282,0,0,1,5.5,248.1c-.278-.178-.53-.34-.749-.483a1.343,1.343,0,0,0-.718-.3,3.583,3.583,0,0,0-1.325.24,3.183,3.183,0,0,0-1.038.652,4.1,4.1,0,0,0-.722.942,5.768,5.768,0,0,0-.479,1.087A9.156,9.156,0,0,0,.185,251.4a10.877,10.877,0,0,0-.149,1.16c-.024.351-.037.716-.037,1.084a3.047,3.047,0,0,0,.905,2.305,3.258,3.258,0,0,0,2.332.851h8.836a3.257,3.257,0,0,0,2.332-.851,3.046,3.046,0,0,0,.905-2.306C15.31,253.277,15.3,252.913,15.273,252.563Zm0,0" transform="translate(0 -238.452)" fill="#5064cc"/>
    </g>
    <g id="user-2-2" data-name="user-2" transform="translate(429 51.603)">
      <path id="Path_17172-2" data-name="Path 17172" d="M91.451,8.84a4.277,4.277,0,0,0,3.125-1.295A4.277,4.277,0,0,0,95.871,4.42a4.277,4.277,0,0,0-1.295-3.125,4.419,4.419,0,0,0-6.25,0A4.277,4.277,0,0,0,87.031,4.42a4.277,4.277,0,0,0,1.3,3.125A4.278,4.278,0,0,0,91.451,8.84Zm0,0" transform="translate(-83.912)" fill="#5064cc"/>
      <path id="Path_17173-2" data-name="Path 17173" d="M15.273,252.563a10.914,10.914,0,0,0-.149-1.16,9.134,9.134,0,0,0-.285-1.166,5.757,5.757,0,0,0-.479-1.087,4.1,4.1,0,0,0-.723-.942,3.186,3.186,0,0,0-1.038-.652,3.587,3.587,0,0,0-1.325-.24,1.345,1.345,0,0,0-.718.3c-.215.14-.467.3-.748.482a4.289,4.289,0,0,1-.968.427,3.76,3.76,0,0,1-2.369,0A4.282,4.282,0,0,1,5.5,248.1c-.278-.178-.53-.34-.749-.483a1.343,1.343,0,0,0-.718-.3,3.583,3.583,0,0,0-1.325.24,3.183,3.183,0,0,0-1.038.652,4.1,4.1,0,0,0-.722.942,5.768,5.768,0,0,0-.479,1.087A9.156,9.156,0,0,0,.185,251.4a10.877,10.877,0,0,0-.149,1.16c-.024.351-.037.716-.037,1.084a3.047,3.047,0,0,0,.905,2.305,3.258,3.258,0,0,0,2.332.851h8.836a3.257,3.257,0,0,0,2.332-.851,3.046,3.046,0,0,0,.905-2.306C15.31,253.277,15.3,252.913,15.273,252.563Zm0,0" transform="translate(0 -238.452)" fill="#5064cc"/>
    </g>
    <g id="user-2-3" data-name="user-2" transform="translate(437 48)">
      <path id="Path_17172-3" data-name="Path 17172" d="M92.56,11.057a5.349,5.349,0,0,0,3.909-1.62,5.349,5.349,0,0,0,1.62-3.909,5.35,5.35,0,0,0-1.62-3.909,5.527,5.527,0,0,0-7.818,0,5.35,5.35,0,0,0-1.62,3.909,5.349,5.349,0,0,0,1.62,3.909A5.351,5.351,0,0,0,92.56,11.057Zm0,0" transform="translate(-83.129)" fill="#5064cc"/>
      <path id="Path_17173-3" data-name="Path 17173" d="M19.1,253.879a13.651,13.651,0,0,0-.186-1.45,11.426,11.426,0,0,0-.357-1.458,7.2,7.2,0,0,0-.6-1.36,5.132,5.132,0,0,0-.9-1.178,3.985,3.985,0,0,0-1.3-.816,4.487,4.487,0,0,0-1.658-.3,1.683,1.683,0,0,0-.9.381c-.269.176-.584.379-.936.6a5.364,5.364,0,0,1-1.211.534,4.7,4.7,0,0,1-2.963,0,5.356,5.356,0,0,1-1.21-.533c-.348-.223-.664-.426-.937-.6a1.68,1.68,0,0,0-.9-.381,4.482,4.482,0,0,0-1.658.3,3.982,3.982,0,0,0-1.3.816,5.133,5.133,0,0,0-.9,1.178,7.216,7.216,0,0,0-.6,1.36,11.453,11.453,0,0,0-.357,1.458,13.6,13.6,0,0,0-.186,1.451c-.03.439-.046.9-.046,1.355a3.812,3.812,0,0,0,1.132,2.884,4.075,4.075,0,0,0,2.917,1.064H15.1a4.074,4.074,0,0,0,2.917-1.064,3.81,3.81,0,0,0,1.132-2.884C19.151,254.773,19.135,254.316,19.1,253.879Zm0,0" transform="translate(0 -236.229)" fill="#5064cc"/>
    </g>
  </g>
</svg>
