<svg xmlns="http://www.w3.org/2000/svg" width="22" height="22" viewBox="0 0 22 22">
  <defs>
    <style>.a{ fill:#707070; }</style>
  </defs>
  <path class="a" d="M67.409,225.569v0l-8.975-8.973a2.025,2.025,0,0,0-2.865,0l-8.97,8.97-.009.009a2.025,2.025,0,0,0,1.348,3.451q.031,0,.062,0h.358v6.6A2.373,2.373,0,0,0,50.727,238h3.511a.645.645,0,0,0,.645-.645v-5.177a1.083,1.083,0,0,1,1.082-1.082h2.071a1.083,1.083,0,0,1,1.081,1.082v5.177a.645.645,0,0,0,.645.645h3.511a2.373,2.373,0,0,0,2.371-2.37v-6.6h.332a2.026,2.026,0,0,0,1.433-3.457Z" transform="translate(-46 -216)" />
</svg>
