<svg xmlns="http://www.w3.org/2000/svg" width="60.042" height="54.001" viewBox="0 0 60.042 54.001"><defs><style>.a{fill:#5064cc;}</style></defs><path class="a" d="M31.754,54a34.4,34.4,0,0,1-7.4-.872l-13.8-3.144v-19.8a15.532,15.532,0,0,1,12.465-1.181l16.545,5.447a3.533,3.533,0,0,1-2.181,6.721S25.234,37.211,25.2,37.211a1.717,1.717,0,0,0-2.111,1.132,1.74,1.74,0,0,0,1.09,2.228l10.847,3.608a12.231,12.231,0,0,0,10.061-1.026l9.428-6.65a3.467,3.467,0,0,1,4.89.884,3.522,3.522,0,0,1-.879,4.917L48.71,49.2A32.491,32.491,0,0,1,32.141,54Zm-30-.943A1.764,1.764,0,0,1,0,51.289V33.6a1.764,1.764,0,0,1,1.759-1.769H7.036V51.289a1.764,1.764,0,0,1-1.759,1.769ZM31.894,14.149A14.071,14.071,0,1,1,45.966,28.3,14.11,14.11,0,0,1,31.894,14.149Z"/></svg>