<svg xmlns="http://www.w3.org/2000/svg" width="26.396" height="27.5" viewBox="0 0 26.396 27.5"><defs><style>.a,.d{fill:none;}.a{stroke:#a1a3a3;stroke-linecap:round;stroke-linejoin:round;stroke-width:2px;}.b{fill:#5064cc;stroke:#5064cc;}.c{stroke:none;}</style></defs><g transform="translate(-350 -646)"><path class="a" d="M16.871,10.674V5.718A3.718,3.718,0,0,0,13.153,2L8.2,13.153V26.784H22.174a2.478,2.478,0,0,0,2.478-2.107l1.71-11.153a2.478,2.478,0,0,0-2.478-2.85ZM8.2,26.784H4.478A2.478,2.478,0,0,1,2,24.306V15.631a2.478,2.478,0,0,1,2.478-2.478H8.2" transform="translate(349 645)"/><g class="b" transform="translate(350 655.5)"><rect class="c" width="8" height="18" rx="1.5"/><rect class="d" x="0.5" y="0.5" width="7" height="17" rx="1"/></g></g></svg>