<svg xmlns="http://www.w3.org/2000/svg" width="41.5" height="34.5" viewBox="0 0 41.5 34.5"><defs><style>.a{fill:#5064cc;}.a,.b{stroke:#5064cc;stroke-linecap:round;stroke-linejoin:round;}.b{fill:none;stroke-width:2px;}.c{fill:#a1a3a3;}</style></defs><g transform="translate(-359 -608)"><g transform="translate(385 626.667)"><circle class="a" cx="2" cy="2" r="2" transform="translate(11 2.333)"/><circle class="a" cx="2" cy="2" r="2" transform="translate(3 6.333)"/><circle class="a" cx="2" cy="2" r="2" transform="translate(11 11.333)"/><line class="b" x2="4.553" y2="2.653" transform="translate(6.727 9.673)"/><line class="b" x1="4.547" y2="2.653" transform="translate(6.727 5.007)"/></g><path class="c" d="M-4059.026-1193h-9.474a2.5,2.5,0,0,1-2.5-2.5v-22a2.5,2.5,0,0,1,2.5-2.5h22a2.5,2.5,0,0,1,2.5,2.5v22a2.5,2.5,0,0,1-2.5,2.5h-7.22v-9.263h3.978l1.326-4.913h-5.3v-3.684a1.281,1.281,0,0,1,1.326-1.228h3.979V-1217h-3.979a6.407,6.407,0,0,0-6.632,6.14v3.684h-3.979v4.913h3.979V-1193Z" transform="translate(4430 1828)"/></g></svg>