<svg xmlns="http://www.w3.org/2000/svg" width="18.936" height="23.919" viewBox="0 0 18.936 23.919"><defs><style>.a{fill:#00c508;}.b{fill:#388e3c;}.c{fill:#fafafa;}</style></defs><g transform="translate(-53.333)"><g transform="translate(53.333)"><path class="a" d="M65.153,128.152a.5.5,0,0,0-.359-.153H60.808a.5.5,0,0,0-.359.153c-.729.754-7.116,7.456-7.116,10.312,0,4.122,4.248,7.475,9.468,7.475s9.468-3.353,9.468-7.475C72.269,135.608,65.882,128.907,65.153,128.152Z" transform="translate(-53.333 -122.02)"/><path class="a" d="M126.445.667c-.83-.939-2.99.293-4.23,1.127C121.647.987,120.806,0,120.091,0s-1.556.987-2.124,1.794c-1.237-.835-3.4-2.067-4.23-1.127a1.255,1.255,0,0,0-.3.963c.16,1.846,3.918,4.9,4.345,5.237a.5.5,0,0,0,.314.11h3.987a.5.5,0,0,0,.311-.109c.428-.342,4.186-3.389,4.345-5.237A1.252,1.252,0,0,0,126.445.667Z" transform="translate(-110.623)"/></g><path class="b" d="M168.471,129H160.5a.5.5,0,0,1,0-1h7.973a.5.5,0,1,1,0,1Z" transform="translate(-101.684 -122.02)"/><g transform="translate(60.308 11.96)"><path class="c" d="M205.122,284.079a2.307,2.307,0,0,1-2.492-1.856.5.5,0,0,1,1-.084c.044.52.715.943,1.495.943.811,0,1.495-.456,1.495-1,0-.486-.472-.8-1.486-.987l-.109-.02c-1.618-.3-2.392-.96-2.392-1.983a2.576,2.576,0,0,1,4.983-.138.5.5,0,0,1-1,.084h0c-.042-.52-.713-.943-1.495-.943-.811,0-1.495.456-1.495,1,0,.486.473.8,1.488.987l.11.021c1.615.3,2.392.959,2.392,1.983A2.292,2.292,0,0,1,205.122,284.079Z" transform="translate(-202.629 -276.106)"/><path class="c" d="M245.831,264.97a.5.5,0,0,1-.5-.5V256.5a.5.5,0,0,1,1,0v7.973A.5.5,0,0,1,245.831,264.97Z" transform="translate(-243.338 -256)"/></g></g></svg>