<svg xmlns="http://www.w3.org/2000/svg" width="19.151" height="22.954" viewBox="0 0 19.151 22.954"><defs><style>.a{fill:#0eb715;}</style></defs><path class="a" d="M92.56,11.057a5.349,5.349,0,0,0,3.909-1.62,5.349,5.349,0,0,0,1.62-3.909,5.35,5.35,0,0,0-1.62-3.909,5.527,5.527,0,0,0-7.818,0,5.35,5.35,0,0,0-1.62,3.909,5.349,5.349,0,0,0,1.62,3.909A5.351,5.351,0,0,0,92.56,11.057Zm0,0" transform="translate(-83.129)"/><path class="a" d="M19.1,253.879a13.651,13.651,0,0,0-.186-1.45,11.426,11.426,0,0,0-.357-1.458,7.2,7.2,0,0,0-.6-1.36,5.132,5.132,0,0,0-.9-1.178,3.985,3.985,0,0,0-1.3-.816,4.487,4.487,0,0,0-1.658-.3,1.683,1.683,0,0,0-.9.381c-.269.176-.584.379-.936.6a5.364,5.364,0,0,1-1.211.534,4.7,4.7,0,0,1-2.963,0,5.356,5.356,0,0,1-1.21-.533c-.348-.223-.664-.426-.937-.6a1.68,1.68,0,0,0-.9-.381,4.482,4.482,0,0,0-1.658.3,3.982,3.982,0,0,0-1.3.816,5.133,5.133,0,0,0-.9,1.178,7.216,7.216,0,0,0-.6,1.36,11.453,11.453,0,0,0-.357,1.458,13.6,13.6,0,0,0-.186,1.451c-.03.439-.046.9-.046,1.355a3.812,3.812,0,0,0,1.132,2.884,4.075,4.075,0,0,0,2.917,1.064H15.1a4.074,4.074,0,0,0,2.917-1.064,3.81,3.81,0,0,0,1.132-2.884C19.151,254.773,19.135,254.316,19.1,253.879Zm0,0" transform="translate(0 -236.229)"/></svg>