<svg xmlns="http://www.w3.org/2000/svg" width="25.373" height="17.084" viewBox="0 0 25.373 17.084"><defs><style>.a,.b,.d{fill:#5064cc;}.c,.d{stroke:none;}</style></defs><g transform="translate(0)"><g transform="translate(10.551 12.833)"><path class="a" d="M194.656,309.343v-.1c-.505-.005-.988-.033-1.455-.071a6.63,6.63,0,0,1-1.054,1.807,17.152,17.152,0,0,0,2.543.225Z" transform="translate(-192.146 -309.173)"/></g><g transform="translate(0 5.003)"><g transform="translate(0 0)"><path class="a" d="M10.837,170.939a5.513,5.513,0,0,0-3.745-4.124,5.593,5.593,0,0,0-1.62-.242,5.472,5.472,0,1,0,3.685,9.517,5.441,5.441,0,0,0,1.79-4.047A5.744,5.744,0,0,0,10.837,170.939Zm-5.365.368a2.073,2.073,0,0,1,.56,4.069v.483a.549.549,0,0,1-1.1,0v-.478a2.086,2.086,0,0,1-1.538-2,.549.549,0,0,1,1.1,0,.975.975,0,1,0,.972-.977,2.072,2.072,0,0,1-.527-4.075v-.236a.549.549,0,1,1,1.1,0v.247a2.076,2.076,0,0,1,1.51,2,.549.549,0,0,1-1.1,0,.977.977,0,1,0-.977.972Z" transform="translate(0 -166.573)"/></g></g><g transform="translate(11.919 9.819)"><g transform="translate(0 0)"><path class="a" d="M218.172,256.255l-.033-1.944c-.34-.005-.675-.016-.994-.038.016.22.027.434.027.648a6.753,6.753,0,0,1-.126,1.285C217.408,256.239,217.787,256.255,218.172,256.255Z" transform="translate(-217.046 -254.273)"/></g></g><g transform="translate(7.778 2.713)"><g transform="translate(0 0)"><path class="a" d="M152.925,124.873a6.583,6.583,0,0,1-1.192.478,18.142,18.142,0,0,1-8.9.044,6.085,6.085,0,0,1-1.186-.456l.038,1.549a6.336,6.336,0,0,1,1.719.972c.016.006.027.006.044.011a15.709,15.709,0,0,0,3.74.412,15.544,15.544,0,0,0,4.228-.533c1.192-.362,1.455-.741,1.455-.813a.316.316,0,0,1,.055-.225Z" transform="translate(-141.646 -124.873)"/></g></g><g transform="translate(7.723)"><path class="a" d="M150.465,76.006a15.33,15.33,0,0,0-4.228-.533,14.832,14.832,0,0,0-4.173.533c-1.159.351-1.411.7-1.417.807,0,0,.005,0,.005.011.027.121.357.494,1.538.835a15.077,15.077,0,0,0,4.047.494,15.516,15.516,0,0,0,4.223-.527c1.192-.357,1.461-.736,1.461-.813S151.656,76.368,150.465,76.006Z" transform="translate(-140.646 -75.473)"/></g><g transform="translate(14.181 14.08)"><path class="a" d="M269.426,333.52v-1.647a7.034,7.034,0,0,1-1.153.467,16.236,16.236,0,0,1-4.536.577,16.9,16.9,0,0,1-4.124-.472,7.154,7.154,0,0,1-1.367-.5l.028,1.592v.011c0,.082.242.45,1.4.807a14.94,14.94,0,0,0,4.168.522,14.66,14.66,0,0,0,4.179-.538c1.159-.362,1.411-.741,1.411-.818Z" transform="translate(-258.246 -331.873)"/></g><g transform="translate(10.821 5.777)"><g transform="translate(0 0)"><path class="a" d="M205.272,180.673a6.936,6.936,0,0,1-1.186.472,16.389,16.389,0,0,1-4.552.577,19.775,19.775,0,0,1-2.488-.159,6.51,6.51,0,0,1,.983,2.043c.472.033.983.055,1.51.055h.055c.9-.988,3.322-1.483,5.678-1.549v-1.439Z" transform="translate(-197.046 -180.673)"/></g></g><g transform="translate(14.132 11.043)"><g transform="translate(0 0)"><path class="a" d="M267.384,277.04a16.44,16.44,0,0,1-4.486.56,16.234,16.234,0,0,1-4.355-.533,6.756,6.756,0,0,1-1.2-.461l.022,1.263.005.461c.428.533,2.477,1.219,5.519,1.219a15.193,15.193,0,0,0,4.212-.527c1.186-.362,1.444-.736,1.444-.813,0-.06.033-.126.033-.181h.005v-1.455A6.274,6.274,0,0,1,267.384,277.04Z" transform="translate(-257.346 -276.573)"/></g></g><g transform="translate(14.093 8.325)"><path class="a" d="M266.464,227.595a15.39,15.39,0,0,0-4.228-.522h-.093a14.943,14.943,0,0,0-3.915.467c-1.137.318-1.527.681-1.576.829a.042.042,0,0,0-.005.022l.011.022c.033.115.357.489,1.538.835a17.066,17.066,0,0,0,8.221-.027c1.219-.362,1.494-.741,1.5-.824v-.005C267.909,228.309,267.634,227.946,266.464,227.595Z" transform="translate(-256.646 -227.073)"/></g></g><g class="b" transform="translate(2.157 6.051)"><path class="c" d="M 3.234668016433716 8.543634414672852 C 1.726768016815186 8.543634414672852 0.4999980032444 6.833174705505371 0.4999980032444 4.730744361877441 C 0.4999980032444 3.652334690093994 0.8275180459022522 2.462824583053589 1.376118063926697 1.548794627189636 C 1.913987994194031 0.6526445746421814 2.591408014297485 0.1386745721101761 3.234668016433716 0.1386745721101761 C 3.877928018569946 0.1386745721101761 4.555347919464111 0.6526445746421814 5.093217849731445 1.548794627189636 C 5.641818046569824 2.462824583053589 5.969337940216064 3.652334690093994 5.969337940216064 4.730744361877441 C 5.969337940216064 6.833174705505371 4.742568016052246 8.543634414672852 3.234668016433716 8.543634414672852 Z"/><path class="d" d="M 3.234668016433716 0.6386747360229492 C 2.258917808532715 0.6386747360229492 0.9999980926513672 2.623044490814209 0.9999980926513672 4.730744361877441 C 0.9999980926513672 6.526514530181885 2.023347854614258 8.043634414672852 3.234668016433716 8.043634414672852 C 4.445987701416016 8.043634414672852 5.469337940216064 6.526514530181885 5.469337940216064 4.730744361877441 C 5.469337940216064 2.623044490814209 4.210417747497559 0.6386747360229492 3.234668016433716 0.6386747360229492 M 3.234668016433716 -0.3613252639770508 C 5.021128177642822 -0.3613252639770508 6.469337940216064 2.348804473876953 6.469337940216064 4.730744361877441 C 6.469337940216064 7.112684726715088 5.021128177642822 9.043634414672852 3.234668016433716 9.043634414672852 C 1.448207855224609 9.043634414672852 -1.9073486328125e-06 7.112684726715088 -1.9073486328125e-06 4.730744361877441 C -1.9073486328125e-06 2.348804473876953 1.448207855224609 -0.3613252639770508 3.234668016433716 -0.3613252639770508 Z"/></g></svg>