<svg xmlns="http://www.w3.org/2000/svg" width="19.615" height="24.086" viewBox="0 0 19.615 24.086"><defs><style>.a{fill:#707070;}</style></defs><path class="a" d="M15.588,24.086H4.029a4.094,4.094,0,0,1-2.955-1.257A3.873,3.873,0,0,1,.012,19.863L1.118,6.307A1.719,1.719,0,0,1,2.843,4.752H5.025v-.1A4.726,4.726,0,0,1,9.808,0,4.726,4.726,0,0,1,14.59,4.656v.1h2.182A1.722,1.722,0,0,1,18.5,6.308l1.1,13.554a3.874,3.874,0,0,1-1.062,2.966A4.088,4.088,0,0,1,15.588,24.086ZM7.054,13.694a.733.733,0,0,0-.512.206.693.693,0,0,0,0,1L8.3,16.608a.741.741,0,0,0,1.024,0l3.747-3.649a.691.691,0,0,0,0-1,.737.737,0,0,0-1.024,0l-3.234,3.15L7.567,13.9A.733.733,0,0,0,7.054,13.694ZM9.808,1.411A3.294,3.294,0,0,0,6.474,4.656v.1h6.667v-.1A3.293,3.293,0,0,0,9.808,1.411Z"/></svg>
