<svg xmlns="http://www.w3.org/2000/svg" xmlns:xlink="http://www.w3.org/1999/xlink" width="172.887" height="158.427" viewBox="0 0 172.887 158.427"><defs><style>.a,.c{fill:#fff;}.a{stroke:#646464;stroke-width:5px;opacity:0.125;}.b{fill:#00b944;}.d{fill:#646464;opacity:0.132;}.e{fill:#52f1ec;}.f,.g,.i{fill:#5064cc;}.f{opacity:0.497;}.g{opacity:0.781;}.h,.k{fill:none;}.h{stroke:#ebebeb;stroke-dasharray:3;}.j{stroke:none;}.l{filter:url(#a);}</style><filter id="a" x="54.09" y="64.723" width="63.834" height="53.734" filterUnits="userSpaceOnUse"><feOffset dy="7" input="SourceAlpha"/><feGaussianBlur stdDeviation="3.5" result="b"/><feFlood flood-opacity="0.161"/><feComposite operator="in" in2="b"/><feComposite in="SourceGraphic"/></filter></defs><g transform="translate(-734 -313)"><g transform="translate(746.574 325.574)"><g transform="translate(0 0)"><g class="a" transform="translate(0 0)"><ellipse class="j" cx="73.555" cy="72.927" rx="73.555" ry="72.927"/><ellipse class="k" cx="73.555" cy="72.927" rx="71.055" ry="70.427"/></g></g><circle class="b" cx="36.463" cy="36.463" r="36.463" transform="translate(37.721 36.463)"/><g class="l" transform="matrix(1, 0, 0, 1, -12.57, -12.57)"><path class="c" d="M21761.018,2659.205l14.42,12.282,28.414-25.963-6.268-6.771-22.146,20.451-8.418-7.213Z" transform="translate(-21696.43 -2570.53)"/></g></g><g transform="translate(734 313)"><rect class="d" width="6.722" height="47.052" rx="3.361" transform="matrix(0.719, -0.695, 0.695, 0.719, 28.058, 28.1)"/><rect class="d" width="2.241" height="47.052" rx="1.12" transform="matrix(0.719, -0.695, 0.695, 0.719, 13.494, 28.1)"/><rect class="d" width="2.241" height="33.609" rx="1.12" transform="matrix(0.719, -0.695, 0.695, 0.719, 145.688, 115.482)"/><rect class="d" width="2.241" height="33.609" rx="1.12" transform="matrix(0.719, -0.695, 0.695, 0.719, 147.928, 131.167)"/><rect class="d" width="4.481" height="16.804" rx="2.241" transform="matrix(0.719, -0.695, 0.695, 0.719, 155.77, 114.362)"/><rect class="d" width="2.241" height="47.052" rx="1.12" transform="matrix(0.719, -0.695, 0.695, 0.719, 7.892, 66.19)"/><rect class="d" width="2.241" height="47.052" rx="1.12" transform="matrix(0.719, -0.695, 0.695, 0.719, 31.418, 10.175)"/><rect class="d" width="6.722" height="47.052" rx="3.361" transform="matrix(0.719, -0.695, 0.695, 0.719, 19.095, 66.19)"/><ellipse class="e" cx="8.8" cy="8.802" rx="8.8" ry="8.802" transform="translate(0 96.817)"/><ellipse class="e" cx="4.4" cy="4.401" rx="4.4" ry="4.401" transform="translate(71.669 33.949)"/><ellipse class="f" cx="3.77" cy="3.772" rx="3.77" ry="3.772" transform="translate(12.574 8.802)"/><circle class="g" cx="4.401" cy="4.401" r="4.401" transform="translate(134.919 0)"/><g class="h" transform="translate(67.897 0)"><ellipse class="j" cx="17.603" cy="16.974" rx="17.603" ry="16.974"/><ellipse class="k" cx="17.603" cy="16.974" rx="17.103" ry="16.474"/></g><g class="h" transform="translate(125.736 99.331)"><ellipse class="j" cx="23.261" cy="23.89" rx="23.261" ry="23.89"/><ellipse class="k" cx="23.261" cy="23.89" rx="22.761" ry="23.39"/></g><circle class="i" cx="10.059" cy="10.059" r="10.059" transform="translate(119.449 138.309)"/></g></g></svg>