<svg xmlns="http://www.w3.org/2000/svg" width="12.836" height="16.5" viewBox="0 0 12.836 16.5"><defs><style>.a{fill:#e74c3c;}</style></defs><path class="a" d="M126.461,1h2.758V1.46h1V.931a.932.932,0,0,0-.93-.931H126.4a.932.932,0,0,0-.931.931V1.46h1Zm0,0" transform="translate(-121.422)"/><path class="a" d="M50.278,167.75H40.929a.439.439,0,0,0-.437.474l.782,9.665a1.038,1.038,0,0,0,1.034.955H48.9a1.038,1.038,0,0,0,1.034-.955l.782-9.665A.438.438,0,0,0,50.278,167.75Zm-7.086,10.063h-.031a.5.5,0,0,1-.5-.467l-.49-7.935a.5.5,0,1,1,.994-.061l.49,7.935A.5.5,0,0,1,43.192,177.813Zm2.914-.5a.5.5,0,0,1-1,0v-7.935a.5.5,0,0,1,1,0Zm2.925-7.905-.468,7.935a.5.5,0,0,1-.5.469h-.03a.5.5,0,0,1-.468-.526l.468-7.935a.5.5,0,0,1,.994.059Zm0,0" transform="translate(-39.185 -162.344)"/><path class="a" d="M12.816,77.624l-.327-.98a.633.633,0,0,0-.6-.433H.95a.633.633,0,0,0-.6.433l-.327.98a.411.411,0,0,0,.39.541H12.426a.405.405,0,0,0,.218-.063A.41.41,0,0,0,12.816,77.624Zm0,0" transform="translate(-0.001 -73.755)"/></svg>