<svg width="18" height="19" viewBox="0 0 18 19" fill="none" xmlns="http://www.w3.org/2000/svg">
<path d="M14.9541 9.961H9.62012V15.294H14.9541V9.961Z" fill="#5064CC"/>
<path d="M8.23681 3.24402H2.90381V8.57802H8.23681V3.24402Z" fill="#5064CC"/>
<path d="M14.9541 3.24402H9.62012V8.57802H14.9541V3.24402Z" fill="#5064CC"/>
<path d="M17.362 0.341003H0.494C0.362983 0.341003 0.237332 0.39305 0.144689 0.485693C0.0520463 0.578336 0 0.703986 0 0.835003L0 17.704C0 17.835 0.0520463 17.9607 0.144689 18.0533C0.237332 18.146 0.362983 18.198 0.494 18.198H17.362C17.493 18.198 17.6187 18.146 17.7113 18.0533C17.804 17.9607 17.856 17.835 17.856 17.704V0.835003C17.856 0.703986 17.804 0.578336 17.7113 0.485693C17.6187 0.39305 17.493 0.341003 17.362 0.341003V0.341003ZM16.336 16.677H1.521V1.861H16.336V16.677Z" fill="#5064CC"/>
<path d="M8.23681 9.961H2.90381V15.294H8.23681V9.961Z" fill="#5064CC"/>
</svg>
