<svg xmlns="http://www.w3.org/2000/svg" width="41.5" height="27.5" viewBox="0 0 41.5 27.5"><defs><style>.a{fill:#a1a3a3;}.b{fill:#5064cc;}.b,.c{stroke:#5064cc;stroke-linecap:round;stroke-linejoin:round;}.c{fill:none;stroke-width:2px;}</style></defs><g transform="translate(-359 -545)"><path class="a" d="M34.034,3.005a16.367,16.367,0,0,1-4.715,2.3,6.727,6.727,0,0,0-11.8,4.5v1.5A16.007,16.007,0,0,1,4,4.507S-2,18.021,11.511,24.027A17.478,17.478,0,0,1,1,27.03c13.514,7.508,30.031,0,30.031-17.268a6.757,6.757,0,0,0-.12-1.246,11.592,11.592,0,0,0,3.123-5.511Z" transform="translate(358 542.01)"/><g transform="translate(385 556.667)"><circle class="b" cx="2" cy="2" r="2" transform="translate(11 2.333)"/><circle class="b" cx="2" cy="2" r="2" transform="translate(3 6.333)"/><circle class="b" cx="2" cy="2" r="2" transform="translate(11 11.333)"/><line class="c" x2="4.553" y2="2.653" transform="translate(6.727 9.673)"/><line class="c" x1="4.547" y2="2.653" transform="translate(6.727 5.007)"/></g></g></svg>