<svg xmlns="http://www.w3.org/2000/svg" width="42" height="26.944" viewBox="0 0 42 26.944"><defs><style>.a{fill:#a1a3a3;}.b{fill:none;stroke:#5064cc;stroke-linecap:round;stroke-width:2px;}</style></defs><g transform="translate(-359 -484)"><path class="a" d="M34.034,3.005a16.367,16.367,0,0,1-4.715,2.3,6.727,6.727,0,0,0-11.8,4.5v1.5A16.007,16.007,0,0,1,4,4.507S-2,18.021,11.511,24.027A17.478,17.478,0,0,1,1,27.03c13.514,7.508,30.031,0,30.031-17.268a6.757,6.757,0,0,0-.12-1.246,11.592,11.592,0,0,0,3.123-5.511Z" transform="translate(358 481.01)"/><g transform="translate(-0.405 159.5)"><line class="b" y2="7.905" transform="translate(396.452 335.5)"/><line class="b" y2="7.905" transform="translate(400.405 339.452) rotate(90)"/></g></g></svg>