<svg xmlns="http://www.w3.org/2000/svg" width="26.59" height="27.175" viewBox="0 0 26.59 27.175"><defs><style>.a{fill:#44099f;}</style></defs><g transform="translate(-434.853 -618.191)"><path class="a" d="M458.848,626.445l-1.363-1.818-.759,5.307a2.3,2.3,0,0,1-.646,1.293l-9.336,9.336a4.284,4.284,0,0,1-3.052,1.263,4.347,4.347,0,0,1-1.01-.119A2.791,2.791,0,0,0,445.036,643h11.172A2.8,2.8,0,0,0,459,640.207V626.9A.763.763,0,0,0,458.848,626.445Z" transform="translate(2.443 2.366)"/><path class="a" d="M445.666,639.486,455,630.15a.766.766,0,0,0,.216-.431l1.077-7.541a.762.762,0,0,0-.215-.646l-1.616-1.616-2.155,2.155.539.538a.762.762,0,1,1-1.077,1.077l-2.155-2.154a.762.762,0,0,1,1.077-1.077l.539.538,2.155-2.154-1.616-1.616a.761.761,0,0,0-.647-.215l-7.54,1.077a.761.761,0,0,0-.431.215l-9.336,9.336a2.8,2.8,0,0,0,0,3.95l7.9,7.9a2.8,2.8,0,0,0,3.95,0Zm3.052-12.878a2.285,2.285,0,1,1-2.285,2.285A2.288,2.288,0,0,1,448.718,626.608Zm-8.617,4.57a2.285,2.285,0,1,1,2.285-2.285A2.288,2.288,0,0,1,440.1,631.178Zm2.513,3.863a.751.751,0,0,1-.241-.039.762.762,0,0,1-.481-.964l3.59-10.772a.762.762,0,0,1,1.446.482l-3.591,10.772A.763.763,0,0,1,442.614,635.041Z" transform="translate(1.853 1.853)"/><path class="a" d="M456.08,618.3A.762.762,0,0,0,455,617.223l-1.616,1.616,1.077,1.077Z" transform="translate(2.62 1.191)"/></g></svg>