<svg xmlns="http://www.w3.org/2000/svg" width="256" height="256"><path fill-opacity=".016" d="M0 128.004v128.004l128.25-.254 128.25-.254.254-127.75L257.008 0H0v128.004m.485.496c0 70.4.119 99.053.265 63.672.146-35.38.146-92.98 0-128C.604 29.153.485 58.1.485 128.5" fill="#1976D2" fill-rule="evenodd"/><path fill-opacity=".175" d="M102 4.841c-1.925.363-5.531 2.07-8.013 3.794-3.197 2.221-6.496 3.444-11.317 4.194-5.54.863-7.514 1.701-10.625 4.511-2.101 1.898-5.206 3.756-6.9 4.128-1.694.372-4.782 2.195-6.863 4.051-2.08 1.855-6.108 5.18-8.952 7.387-2.843 2.208-5.446 4.884-5.783 5.946-.337 1.063-1.91 2.47-3.494 3.126-1.585.657-3.384 2.407-3.999 3.891-.614 1.483-2.473 3.976-4.13 5.54s-3.895 4.575-4.974 6.69c-1.079 2.115-3.32 5.391-4.979 7.281-1.856 2.114-3.84 6.26-5.157 10.778-1.177 4.038-3.152 8.336-4.388 9.55-1.237 1.215-2.549 3.577-2.917 5.25C9.142 92.631 8.202 94 7.421 94c-1.197 0-1.419 4.773-1.406 30.25.009 17.803.414 30.867.985 31.75.65 1.006 1.007-3.767 1.084-14.5.064-8.8.442-17.125.841-18.5 1.212-4.179 2.263 7.461 2.062 22.836C10.732 165.289 10.784 166 12.45 166c.798 0 1.81.596 2.25 1.325.44.729 1.633 1.633 2.651 2.008 1.653.609 1.777 1.417 1.157 7.59-.685 6.815-.655 6.934 2.149 8.73 4.223 2.705 5.343 3.994 5.343 6.148 0 4.254 23.51 29.378 31.127 33.264 2.099 1.07 5.15 3.251 6.781 4.845 1.631 1.595 5.576 3.876 8.766 5.069 3.19 1.194 6.031 2.49 6.313 2.88 2.07 2.865 6.753 5.031 12.264 5.67 3.425.398 9.607 2.106 13.738 3.796 6.999 2.864 8.537 3.1 22.578 3.477 15.06.403 15.073.401 31-3.781 8.763-2.301 17.283-4.869 18.933-5.705 15.569-7.897 18.112-9.444 26.037-15.838 4.446-3.587 12.788-11.724 17.406-16.978 4.599-5.232 14.468-21.395 15.253-24.979.484-2.211 2.494-6.385 4.467-9.275 3.429-5.024 3.645-5.856 4.92-19 .734-7.56 1.369-16.221 1.411-19.246.074-5.282.134-5.401 1.506-3 1.324 2.316 1.431 1.873 1.449-6 .014-5.623-.295-8.002-.91-7.029-.512.809-1.202 1.199-1.535.867-.332-.333-1.037-7.44-1.566-15.793-.97-15.33-1.697-18.194-5.821-22.924-1.141-1.308-2.325-4.008-2.632-6-.672-4.371-4.211-11.802-5.937-12.464-.684-.263-2.465-2.812-3.957-5.665s-4.373-6.911-6.402-9.017-6.164-6.548-9.189-9.871c-3.025-3.323-6.04-6.056-6.699-6.073-.66-.017-3.36-2.102-6-4.632-2.641-2.531-6.782-5.469-9.202-6.53-2.421-1.06-5.843-3.193-7.604-4.74-2.172-1.907-5.246-3.213-9.554-4.061-3.493-.687-9.521-2.877-13.396-4.867L152.5 4.583l-23.5-.2c-12.925-.11-25.075.096-27 .458m37.25 95.311c-2.631 1.845-4.25 3.755-4.25 5.014 0 1.119 2.005 4.068 4.455 6.554 5.235 5.309 8.121 5.326 10.839.061.931-1.804 2.249-4.057 2.928-5.005 1.055-1.472.661-2.312-2.697-5.75-2.162-2.214-4.627-3.987-5.478-3.94-.851.048-3.459 1.428-5.797 3.066" fill="#1976D2" fill-rule="evenodd"/><path fill-opacity=".507" d="M114.232 9.098c-2.661.64-4.869 1.944-5.865 3.464-1.468 2.241-2.232 2.438-9.433 2.438-10.839 0-17.539 1.605-21.164 5.069-1.641 1.568-5.318 3.53-8.173 4.36-2.858.831-6.292 2.699-7.643 4.159-1.35 1.458-4.029 3.66-5.954 4.894-7.923 5.076-24.186 23.365-28.191 31.703-1.14 2.373-3.448 6.239-5.128 8.59-2.709 3.789-3.063 5.095-3.118 11.5-.05 5.697.246 7.225 1.397 7.225 1.5 0 3.31-2.442 8.54-11.517 1.65-2.864 4.166-7.206 5.592-9.651 5.915-10.144 30.905-35.37 38.639-39.003 2.877-1.352 5.496-2.888 5.821-3.413 1.267-2.051 10.326-5.734 17.827-7.249 4.334-.875 8.644-2.283 9.579-3.129 2.713-2.456 24.583-2.126 32.949.496 3.524 1.105 10.487 2.668 15.473 3.475 7.326 1.185 10.04 2.137 14.141 4.961 2.79 1.922 6.846 4.108 9.011 4.858 6.144 2.126 26.026 20.879 29.515 27.838 1.195 2.384 3.199 5.459 4.452 6.834 1.254 1.375 3.048 5.2 3.988 8.5.939 3.3 3.238 8.482 5.107 11.515 3.194 5.18 3.468 6.336 4.505 19 1.017 12.404.69 27.817-.791 37.352-.331 2.127-2.083 6.069-3.893 8.76-1.811 2.69-3.876 6.506-4.59 8.479-1.622 4.488-19.596 22.726-25.226 25.598-2.232 1.139-5.643 3.328-7.579 4.864-2.004 1.59-6.32 3.478-10.02 4.382-3.575.874-9.65 3.136-13.5 5.027-6.314 3.102-8.519 3.59-22.5 4.984-20.269 2.021-37.036 2.039-55.5.059-13.853-1.486-15.612-1.911-23-5.564C55.1 197.78 50.362 196 48.972 196c-2.463 0-4.959-1.488-12.351-7.361-3.992-3.171-6.629-2.94-6.606.58.019 2.821.738 3.852 4.235 6.077 1.513.963 2.75 2.469 2.75 3.349 0 2.018 16.846 18.411 23.5 22.867 2.75 1.841 6.31 4.507 7.911 5.923 1.601 1.416 4.751 3.065 7 3.664 2.249.599 6.675 2.654 9.836 4.566 6.971 4.217 20.947 7.059 39.356 8.004 17.542.9 39.355-2.51 49.397-7.724a446.634 446.634 0 0110.916-5.442c2.979-1.423 6.932-3.918 8.785-5.545 1.853-1.627 3.859-2.958 4.458-2.958.967 0 4.82-3.448 13.628-12.194 7.448-7.395 19.725-25.429 21.312-31.306.594-2.2 2.555-7.375 4.359-11.5 4.459-10.202 5.722-18.9 5.772-39.77.049-20.428-1.155-29.137-5.127-37.077-1.555-3.109-3.375-7.976-4.044-10.815-.669-2.84-2.342-6.665-3.718-8.5-1.376-1.836-3.766-5.815-5.312-8.842-1.789-3.505-6.755-9.499-13.669-16.5-13.497-13.666-21.341-19.951-26.812-21.483-2.329-.652-5.756-2.483-7.614-4.07C173.621 17.116 163.443 14 157.522 14c-1.42 0-5.279-1.135-8.574-2.522-4.987-2.099-8.043-2.596-18.22-2.965-6.725-.243-14.149.02-16.496.585m-1.487 66.849c-2.555 1.62-6.864 3.605-9.575 4.41-5.957 1.769-16.71 11.79-20.058 18.694-1.187 2.447-3.372 6.474-4.855 8.949-2.322 3.876-2.751 5.851-3.093 14.243-.579 14.23.385 20.173 3.923 24.203 1.611 1.835 3.812 5.298 4.89 7.695 2.536 5.639 5.193 8.641 12.388 13.995 9.96 7.411 10.301 7.552 21.12 8.77 14.522 1.634 33.44-.701 36.608-4.518.73-.879 3.935-3.37 7.123-5.535 4.356-2.958 6.551-5.356 8.828-9.645 1.667-3.139 4.109-7.193 5.428-9.008 3.099-4.268 3.937-11.193 3.289-27.182-.551-13.584-.917-14.741-7.285-23.018-4.342-5.643-15.58-17-16.823-17-.512 0-4.684-1.8-9.272-4-7.985-3.829-8.76-4-18.165-4-9.159 0-10.139.2-14.471 2.947m27.132 18.554c-8.814 7.159-8.878 7.235-8.857 10.673.015 2.6 1.097 4.465 4.958 8.546 5.14 5.434 8.791 7.142 12.086 5.654 3.018-1.362 10.936-11.599 10.936-14.138 0-2.604-9.276-12.633-12.623-13.647-1.545-.468-3.314.325-6.5 2.912m-127.21 5.166c-.875.874-.73 11.317.189 13.648.684 1.734.795 1.728 2.473-.126C18.873 109.272 18.742 99 15.148 99c-.998 0-2.115.3-2.481.667" fill="#1976D2" fill-rule="evenodd"/><path fill-opacity=".804" d="M120 81.168c-1.375.572-5.635 1.707-9.466 2.522-9.06 1.928-12.081 3.573-13.374 7.28-.713 2.046-1.722 3.03-3.108 3.03-3.28 0-5.7 3.293-6.423 8.738-.449 3.387-1.651 6.273-3.671 8.815-3.907 4.917-4.325 6.883-3.718 17.519.46 8.062.779 9.185 3.483 12.266 1.715 1.952 3.247 5.072 3.612 7.353.517 3.236 1.821 5.045 7.124 9.885 8.105 7.397 12.633 11.278 14.448 12.381 2.328 1.415 18.301 2.288 27.633 1.511 7.971-.664 9.06-1.015 12.351-3.984 1.985-1.791 5.802-4.545 8.482-6.12 3.832-2.252 5.542-4.162 8-8.937 1.72-3.34 4.347-7.515 5.837-9.279 3.423-4.05 4.068-7.563 3.636-19.818-.329-9.358-.57-10.286-5.009-19.33-3.852-7.848-5.31-9.844-8.382-11.478-2.045-1.088-4.746-3.606-6.001-5.596-2.022-3.202-3.01-3.76-8.619-4.864-3.484-.687-7.64-1.656-9.234-2.155-3.846-1.203-14.463-1.046-17.601.261m14.142 11.953c-5.165 4.367-6.148 5.739-6.686 9.321-.928 6.194.904 11.527 5.504 16.019 3.578 3.493 4.642 3.955 10.024 4.344 7.405.536 10.314-.68 15.415-6.442 3.138-3.545 3.992-5.38 4.379-9.41.526-5.472.787-5.028-8.334-14.203-4.315-4.341-5.132-4.75-9.484-4.75-4.275 0-5.383.524-10.818 5.121" fill="#1976D2" fill-rule="evenodd"/></svg>